<mxfile host="app.diagrams.net" modified="2020-04-20T09:37:53.618Z" agent="5.0 (Windows NT 6.1; Win64; x64) AppleWebKit/537.36 (KHTML, like Gecko) Chrome/78.0.3904.108 Safari/537.36" etag="lLF5UoVhRCjhRpJg3la8" version="12.9.10" type="github">
  <diagram id="vttHdj9wDUYj9lkuW8Uf" name="Page-1">
    <mxGraphModel dx="1422" dy="802" grid="1" gridSize="10" guides="1" tooltips="1" connect="1" arrows="1" fold="1" page="0" pageScale="1" pageWidth="850" pageHeight="1100" math="0" shadow="0">
      <root>
        <mxCell id="0" />
        <mxCell id="1" parent="0" />
        <mxCell id="sLJMmy0dZgE5UlvFwb_B-6" value="评审" style="shape=partialRectangle;whiteSpace=wrap;html=1;bottom=1;right=1;left=1;top=0;fillColor=#d5e8d4;routingCenterX=-0.5;strokeColor=#82b366;" parent="1" vertex="1">
          <mxGeometry x="90" y="250" width="90" height="20" as="geometry" />
        </mxCell>
        <mxCell id="sLJMmy0dZgE5UlvFwb_B-8" value="UI设计" style="shape=partialRectangle;whiteSpace=wrap;html=1;bottom=1;right=1;left=1;top=0;fillColor=#fff2cc;routingCenterX=-0.5;strokeColor=#d6b656;" parent="1" vertex="1">
          <mxGeometry x="180" y="250" width="90" height="20" as="geometry" />
        </mxCell>
        <mxCell id="sLJMmy0dZgE5UlvFwb_B-9" value="开发" style="shape=partialRectangle;whiteSpace=wrap;html=1;bottom=1;right=1;left=1;top=0;fillColor=#dae8fc;routingCenterX=-0.5;strokeColor=#6c8ebf;" parent="1" vertex="1">
          <mxGeometry x="270" y="200" width="80" height="20" as="geometry" />
        </mxCell>
        <mxCell id="sLJMmy0dZgE5UlvFwb_B-10" value="设计" style="shape=partialRectangle;whiteSpace=wrap;html=1;bottom=1;right=1;left=1;top=0;fillColor=#f8cecc;routingCenterX=-0.5;strokeColor=#b85450;" parent="1" vertex="1">
          <mxGeometry x="180" y="270" width="80" height="20" as="geometry" />
        </mxCell>
        <mxCell id="sLJMmy0dZgE5UlvFwb_B-15" value="开发" style="shape=partialRectangle;whiteSpace=wrap;html=1;bottom=1;right=1;left=1;top=0;fillColor=#f8cecc;routingCenterX=-0.5;strokeColor=#b85450;" parent="1" vertex="1">
          <mxGeometry x="260" y="270" width="80" height="20" as="geometry" />
        </mxCell>
        <mxCell id="sLJMmy0dZgE5UlvFwb_B-17" value="联调" style="shape=partialRectangle;whiteSpace=wrap;html=1;bottom=1;right=1;left=1;top=0;fillColor=#dae8fc;routingCenterX=-0.5;strokeColor=#6c8ebf;" parent="1" vertex="1">
          <mxGeometry x="350" y="200" width="90" height="20" as="geometry" />
        </mxCell>
        <mxCell id="sLJMmy0dZgE5UlvFwb_B-18" value="联调" style="shape=partialRectangle;whiteSpace=wrap;html=1;bottom=1;right=1;left=1;top=0;fillColor=#f8cecc;routingCenterX=-0.5;strokeColor=#b85450;" parent="1" vertex="1">
          <mxGeometry x="340" y="270" width="110" height="20" as="geometry" />
        </mxCell>
        <mxCell id="sLJMmy0dZgE5UlvFwb_B-21" value="UI评审" style="shape=partialRectangle;whiteSpace=wrap;html=1;bottom=1;right=1;left=1;top=0;fillColor=#e1d5e7;routingCenterX=-0.5;strokeColor=#9673a6;" parent="1" vertex="1">
          <mxGeometry x="270" y="250" width="40" height="20" as="geometry" />
        </mxCell>
        <mxCell id="sLJMmy0dZgE5UlvFwb_B-22" value="测试" style="shape=partialRectangle;whiteSpace=wrap;html=1;bottom=1;right=1;left=1;top=0;routingCenterX=-0.5;fillColor=#f5f5f5;strokeColor=#666666;fontColor=#333333;" parent="1" vertex="1">
          <mxGeometry x="450" y="250" width="130" height="20" as="geometry" />
        </mxCell>
        <mxCell id="sLJMmy0dZgE5UlvFwb_B-29" value="发布" style="shape=partialRectangle;whiteSpace=wrap;html=1;bottom=1;right=1;left=1;top=0;fillColor=#d5e8d4;routingCenterX=-0.5;strokeColor=#82b366;" parent="1" vertex="1">
          <mxGeometry x="636" y="250" width="70" height="20" as="geometry" />
        </mxCell>
        <mxCell id="sLJMmy0dZgE5UlvFwb_B-41" value="LMS迭代节奏" style="text;strokeColor=none;fillColor=none;html=1;fontSize=24;fontStyle=1;verticalAlign=middle;align=center;" parent="1" vertex="1">
          <mxGeometry x="100" y="60" width="100" height="40" as="geometry" />
        </mxCell>
        <mxCell id="sLJMmy0dZgE5UlvFwb_B-42" value="" style="endArrow=none;dashed=1;html=1;" parent="1" edge="1">
          <mxGeometry width="50" height="50" relative="1" as="geometry">
            <mxPoint x="270" y="400" as="sourcePoint" />
            <mxPoint x="270" y="152" as="targetPoint" />
          </mxGeometry>
        </mxCell>
        <mxCell id="sLJMmy0dZgE5UlvFwb_B-43" value="app进入开发需要UI及接口文档" style="text;html=1;align=center;verticalAlign=middle;resizable=0;points=[];" parent="sLJMmy0dZgE5UlvFwb_B-42" vertex="1" connectable="0">
          <mxGeometry x="0.9222" y="-1" relative="1" as="geometry">
            <mxPoint as="offset" />
          </mxGeometry>
        </mxCell>
        <mxCell id="sLJMmy0dZgE5UlvFwb_B-44" value="设计" style="shape=partialRectangle;whiteSpace=wrap;html=1;bottom=1;right=1;left=1;top=0;fillColor=#dae8fc;routingCenterX=-0.5;strokeColor=#6c8ebf;" parent="1" vertex="1">
          <mxGeometry x="180" y="200" width="90" height="20" as="geometry" />
        </mxCell>
        <mxCell id="sLJMmy0dZgE5UlvFwb_B-47" value="" style="endArrow=none;dashed=1;html=1;" parent="1" edge="1">
          <mxGeometry width="50" height="50" relative="1" as="geometry">
            <mxPoint x="449" y="400" as="sourcePoint" />
            <mxPoint x="449" y="130" as="targetPoint" />
          </mxGeometry>
        </mxCell>
        <mxCell id="sLJMmy0dZgE5UlvFwb_B-48" value="所有功能提测,下一轮评审开始" style="text;html=1;align=center;verticalAlign=middle;resizable=0;points=[];" parent="sLJMmy0dZgE5UlvFwb_B-47" vertex="1" connectable="0">
          <mxGeometry x="0.9222" y="-1" relative="1" as="geometry">
            <mxPoint as="offset" />
          </mxGeometry>
        </mxCell>
        <mxCell id="sLJMmy0dZgE5UlvFwb_B-49" value="APP工程师" style="shape=partialRectangle;whiteSpace=wrap;html=1;bottom=1;right=1;left=1;top=0;fillColor=#dae8fc;routingCenterX=-0.5;strokeColor=#6c8ebf;" parent="1" vertex="1">
          <mxGeometry x="90" y="430" width="116" height="20" as="geometry" />
        </mxCell>
        <mxCell id="sLJMmy0dZgE5UlvFwb_B-50" value="所有人员" style="shape=partialRectangle;whiteSpace=wrap;html=1;bottom=1;right=1;left=1;top=0;fillColor=#d5e8d4;routingCenterX=-0.5;strokeColor=#82b366;" parent="1" vertex="1">
          <mxGeometry x="90" y="410" width="116" height="20" as="geometry" />
        </mxCell>
        <mxCell id="sLJMmy0dZgE5UlvFwb_B-52" value="UI设计师" style="shape=partialRectangle;whiteSpace=wrap;html=1;bottom=1;right=1;left=1;top=0;fillColor=#fff2cc;routingCenterX=-0.5;strokeColor=#d6b656;" parent="1" vertex="1">
          <mxGeometry x="90" y="450" width="117" height="20.17" as="geometry" />
        </mxCell>
        <mxCell id="sLJMmy0dZgE5UlvFwb_B-53" value="固件工程师" style="shape=partialRectangle;whiteSpace=wrap;html=1;bottom=1;right=1;left=1;top=0;fillColor=#f8cecc;routingCenterX=-0.5;strokeColor=#b85450;" parent="1" vertex="1">
          <mxGeometry x="90" y="470" width="117" height="20" as="geometry" />
        </mxCell>
        <mxCell id="sLJMmy0dZgE5UlvFwb_B-56" value="PM、APP开发、UI" style="shape=partialRectangle;whiteSpace=wrap;html=1;bottom=1;right=1;left=1;top=0;fillColor=#e1d5e7;routingCenterX=-0.5;strokeColor=#9673a6;" parent="1" vertex="1">
          <mxGeometry x="90" y="490" width="117" height="20" as="geometry" />
        </mxCell>
        <mxCell id="sLJMmy0dZgE5UlvFwb_B-57" value="QA" style="shape=partialRectangle;whiteSpace=wrap;html=1;bottom=1;right=1;left=1;top=0;routingCenterX=-0.5;fillColor=#f5f5f5;strokeColor=#666666;fontColor=#333333;" parent="1" vertex="1">
          <mxGeometry x="90" y="510" width="117" height="20" as="geometry" />
        </mxCell>
        <mxCell id="sLJMmy0dZgE5UlvFwb_B-58" value="UI走查" style="shape=partialRectangle;whiteSpace=wrap;html=1;bottom=1;right=1;left=1;top=0;fillColor=#fff2cc;routingCenterX=-0.5;strokeColor=#d6b656;" parent="1" vertex="1">
          <mxGeometry x="450" y="230" width="57" height="20" as="geometry" />
        </mxCell>
        <mxCell id="sLJMmy0dZgE5UlvFwb_B-59" value="验收" style="shape=partialRectangle;whiteSpace=wrap;html=1;bottom=1;right=1;left=1;top=0;routingCenterX=-0.5;" parent="1" vertex="1">
          <mxGeometry x="580" y="250" width="56" height="20" as="geometry" />
        </mxCell>
        <mxCell id="sLJMmy0dZgE5UlvFwb_B-60" style="edgeStyle=orthogonalEdgeStyle;rounded=0;orthogonalLoop=1;jettySize=auto;html=1;exitX=0.5;exitY=1;exitDx=0;exitDy=0;" parent="1" source="sLJMmy0dZgE5UlvFwb_B-29" target="sLJMmy0dZgE5UlvFwb_B-29" edge="1">
          <mxGeometry relative="1" as="geometry" />
        </mxCell>
        <mxCell id="sLJMmy0dZgE5UlvFwb_B-61" value="PM" style="shape=partialRectangle;whiteSpace=wrap;html=1;bottom=1;right=1;left=1;top=0;routingCenterX=-0.5;" parent="1" vertex="1">
          <mxGeometry x="90" y="530" width="117" height="20" as="geometry" />
        </mxCell>
        <mxCell id="sLJMmy0dZgE5UlvFwb_B-65" value="评审" style="shape=partialRectangle;whiteSpace=wrap;html=1;bottom=1;right=1;left=1;top=0;fillColor=#d5e8d4;routingCenterX=-0.5;strokeColor=#82b366;" parent="1" vertex="1">
          <mxGeometry x="450" y="340" width="90" height="20" as="geometry" />
        </mxCell>
        <mxCell id="sLJMmy0dZgE5UlvFwb_B-66" value="UI设计" style="shape=partialRectangle;whiteSpace=wrap;html=1;bottom=1;right=1;left=1;top=0;fillColor=#fff2cc;routingCenterX=-0.5;strokeColor=#d6b656;" parent="1" vertex="1">
          <mxGeometry x="540" y="340" width="90" height="20" as="geometry" />
        </mxCell>
        <mxCell id="sLJMmy0dZgE5UlvFwb_B-67" value="开发" style="shape=partialRectangle;whiteSpace=wrap;html=1;bottom=1;right=1;left=1;top=0;fillColor=#dae8fc;routingCenterX=-0.5;strokeColor=#6c8ebf;" parent="1" vertex="1">
          <mxGeometry x="670" y="285" width="80" height="20" as="geometry" />
        </mxCell>
        <mxCell id="sLJMmy0dZgE5UlvFwb_B-68" value="设计" style="shape=partialRectangle;whiteSpace=wrap;html=1;bottom=1;right=1;left=1;top=0;fillColor=#f8cecc;routingCenterX=-0.5;strokeColor=#b85450;" parent="1" vertex="1">
          <mxGeometry x="580" y="360" width="80" height="20" as="geometry" />
        </mxCell>
        <mxCell id="sLJMmy0dZgE5UlvFwb_B-69" value="开发" style="shape=partialRectangle;whiteSpace=wrap;html=1;bottom=1;right=1;left=1;top=0;fillColor=#f8cecc;routingCenterX=-0.5;strokeColor=#b85450;" parent="1" vertex="1">
          <mxGeometry x="660" y="360" width="80" height="20" as="geometry" />
        </mxCell>
        <mxCell id="sLJMmy0dZgE5UlvFwb_B-70" value="联调" style="shape=partialRectangle;whiteSpace=wrap;html=1;bottom=1;right=1;left=1;top=0;fillColor=#dae8fc;routingCenterX=-0.5;strokeColor=#6c8ebf;" parent="1" vertex="1">
          <mxGeometry x="750" y="285" width="90" height="20" as="geometry" />
        </mxCell>
        <mxCell id="sLJMmy0dZgE5UlvFwb_B-71" value="联调" style="shape=partialRectangle;whiteSpace=wrap;html=1;bottom=1;right=1;left=1;top=0;fillColor=#f8cecc;routingCenterX=-0.5;strokeColor=#b85450;" parent="1" vertex="1">
          <mxGeometry x="740" y="360" width="110" height="20" as="geometry" />
        </mxCell>
        <mxCell id="sLJMmy0dZgE5UlvFwb_B-72" value="UI评审" style="shape=partialRectangle;whiteSpace=wrap;html=1;bottom=1;right=1;left=1;top=0;fillColor=#e1d5e7;routingCenterX=-0.5;strokeColor=#9673a6;" parent="1" vertex="1">
          <mxGeometry x="630" y="340" width="40" height="20" as="geometry" />
        </mxCell>
        <mxCell id="sLJMmy0dZgE5UlvFwb_B-73" value="测试" style="shape=partialRectangle;whiteSpace=wrap;html=1;bottom=1;right=1;left=1;top=0;routingCenterX=-0.5;fillColor=#f5f5f5;strokeColor=#666666;fontColor=#333333;" parent="1" vertex="1">
          <mxGeometry x="850" y="339" width="130" height="20" as="geometry" />
        </mxCell>
        <mxCell id="sLJMmy0dZgE5UlvFwb_B-74" value="发布" style="shape=partialRectangle;whiteSpace=wrap;html=1;bottom=1;right=1;left=1;top=0;fillColor=#d5e8d4;routingCenterX=-0.5;strokeColor=#82b366;" parent="1" vertex="1">
          <mxGeometry x="1036" y="339" width="70" height="20" as="geometry" />
        </mxCell>
        <mxCell id="sLJMmy0dZgE5UlvFwb_B-75" value="设计" style="shape=partialRectangle;whiteSpace=wrap;html=1;bottom=1;right=1;left=1;top=0;fillColor=#dae8fc;routingCenterX=-0.5;strokeColor=#6c8ebf;" parent="1" vertex="1">
          <mxGeometry x="580" y="285" width="90" height="20" as="geometry" />
        </mxCell>
        <mxCell id="sLJMmy0dZgE5UlvFwb_B-76" value="UI走查" style="shape=partialRectangle;whiteSpace=wrap;html=1;bottom=1;right=1;left=1;top=0;fillColor=#fff2cc;routingCenterX=-0.5;strokeColor=#d6b656;" parent="1" vertex="1">
          <mxGeometry x="850" y="319" width="57" height="20" as="geometry" />
        </mxCell>
        <mxCell id="sLJMmy0dZgE5UlvFwb_B-77" value="验收" style="shape=partialRectangle;whiteSpace=wrap;html=1;bottom=1;right=1;left=1;top=0;routingCenterX=-0.5;" parent="1" vertex="1">
          <mxGeometry x="980" y="339" width="56" height="20" as="geometry" />
        </mxCell>
        <mxCell id="sLJMmy0dZgE5UlvFwb_B-78" style="edgeStyle=orthogonalEdgeStyle;rounded=0;orthogonalLoop=1;jettySize=auto;html=1;exitX=0.5;exitY=1;exitDx=0;exitDy=0;" parent="1" source="sLJMmy0dZgE5UlvFwb_B-74" target="sLJMmy0dZgE5UlvFwb_B-74" edge="1">
          <mxGeometry relative="1" as="geometry" />
        </mxCell>
      </root>
    </mxGraphModel>
  </diagram>
</mxfile>
